HIERARCHY
ROOT SimulationBone
{
	OFFSET 0.000000 0.000000 0.000000
	CHANNELS 6 Xposition Yposition Zposition Zrotation Yrotation Xrotation 
	JOINT Hips
	{
		OFFSET 0.000000 0.000000 0.000000
		CHANNELS 6 Xposition Yposition Zposition Zrotation Yrotation Xrotation 
		JOINT LeftUpLeg
		{
			OFFSET 0.103454 1.857841 10.548502
			CHANNELS 3 Zrotation Yrotation Xrotation
			JOINT LeftLeg
			{
				OFFSET 43.500000 -0.000034 -0.000004
				CHANNELS 3 Zrotation Yrotation Xrotation
				JOINT LeftFoot
				{
					OFFSET 42.372192 0.000027 -0.000002
					CHANNELS 3 Zrotation Yrotation Xrotation
					JOINT LeftToe
					{
						OFFSET 17.300003 0.000001 0.000001
						CHANNELS 3 Zrotation Yrotation Xrotation
						End Site
						{
							OFFSET 0.000000 0.000000 0.000000
						}
					}
				}
			}
		}
		JOINT RightUpLeg
		{
			OFFSET 0.103461 1.857837 -10.548502
			CHANNELS 3 Zrotation Yrotation Xrotation
			JOINT RightLeg
			{
				OFFSET 43.500046 -0.000034 0.000013
				CHANNELS 3 Zrotation Yrotation Xrotation
				JOINT RightFoot
				{
					OFFSET 42.372261 0.000004 0.000013
					CHANNELS 3 Zrotation Yrotation Xrotation
					JOINT RightToe
					{
						OFFSET 17.299986 -0.000008 0.000013
						CHANNELS 3 Zrotation Yrotation Xrotation
						End Site
						{
							OFFSET 0.000000 0.000000 0.000000
						}
					}
				}
			}
		}
		JOINT Spine
		{
			OFFSET 6.901964 -2.603740 0.000003
			CHANNELS 3 Zrotation Yrotation Xrotation
			JOINT Spine1
			{
				OFFSET 12.588108 0.000020 -0.000003
				CHANNELS 3 Zrotation Yrotation Xrotation
				JOINT Spine2
				{
					OFFSET 12.343194 -0.000020 0.000000
					CHANNELS 3 Zrotation Yrotation Xrotation
					JOINT Neck
					{
						OFFSET 25.832893 -0.000004 0.000001
						CHANNELS 3 Zrotation Yrotation Xrotation
						JOINT Head
						{
							OFFSET 11.766617 0.000023 0.000000
							CHANNELS 3 Zrotation Yrotation Xrotation
							End Site
							{
								OFFSET 0.000000 0.000000 0.000000
							}
						}
					}
					JOINT LeftShoulder
					{
						OFFSET 19.745911 -1.480362 6.000106
						CHANNELS 3 Zrotation Yrotation Xrotation
						JOINT LeftArm
						{
							OFFSET 11.284124 -0.000010 -0.000029
							CHANNELS 3 Zrotation Yrotation Xrotation
							JOINT LeftForeArm
							{
								OFFSET 33.000050 0.000006 0.000043
								CHANNELS 3 Zrotation Yrotation Xrotation
								JOINT LeftHand
								{
									OFFSET 25.200006 0.000015 0.000002
									CHANNELS 3 Zrotation Yrotation Xrotation
									End Site
									{
										OFFSET 0.000000 0.000000 0.000000
									}
								}
							}
						}
					}
					JOINT RightShoulder
					{
						OFFSET 19.746103 -1.480366 -6.000076
						CHANNELS 3 Zrotation Yrotation Xrotation
						JOINT RightArm
						{
							OFFSET 11.284135 -0.000031 -0.000006
							CHANNELS 3 Zrotation Yrotation Xrotation
							JOINT RightForeArm
							{
								OFFSET 33.000095 0.000024 0.000006
								CHANNELS 3 Zrotation Yrotation Xrotation
								JOINT RightHand
								{
									OFFSET 25.199774 0.000153 0.000421
									CHANNELS 3 Zrotation Yrotation Xrotation
									End Site
									{
										OFFSET 0.000000 0.000000 0.000000
									}
								}
							}
						}
					}
				}
			}
		}
	}
}
MOTION
Frames: 11
Frame Time: 0.033333
118.807083 0.000000 -286.975075 0.000000 -66.857110 0.000000 1.768554 89.280830 0.434970 96.594877 2.078436 -171.775310 172.099006 -7.981205 -172.167363 -71.236769 3.424264 -2.109829 71.856001 0.413905 -2.999607 21.454553 0.003106 0.000015 171.149186 0.772399 -179.273478 -28.244897 2.566252 6.298310 77.767687 -3.495256 3.799277 21.454551 -0.003091 0.000001 7.286314 1.495365 -0.940403 4.537280 3.026155 -1.822583 4.218886 3.014953 -1.840832 17.981786 19.326954 25.554238 -13.706756 -21.073171 33.840135 -166.045778 -72.377001 -15.730805 -22.735128 62.241513 16.144827 -25.777540 -16.018402 1.244960 13.186984 -8.470389 -3.059267 -157.239329 71.718557 24.834204 -15.526174 -46.478584 -30.394099 -31.252647 13.313602 -1.145804 7.961218 0.971861 -31.380802 
118.804318 0.000000 -283.693982 0.000000 -65.877217 0.000000 1.685698 89.730904 0.508674 96.731620 2.134058 -172.980504 167.296427 -6.138005 -173.340038 -75.570709 3.516791 -3.734295 72.890686 1.545733 -3.196204 21.454570 0.003118 0.000017 174.476185 -0.315702 -179.193004 -25.620950 2.739770 6.350414 78.516412 -3.838666 2.652720 21.454553 -0.003086 -0.000003 7.281278 1.449217 -0.673079 4.534725 2.923486 -1.289758 4.216257 2.915509 -1.307400 18.600502 19.583349 25.482148 -14.051166 -21.432601 33.887594 -165.365778 -71.979395 -16.432190 -17.377521 62.253561 20.603211 -23.334248 -14.666124 1.121203 15.129263 -5.029641 -0.450832 -158.002629 72.963066 24.026702 -19.942272 -46.777524 -23.953678 -33.323021 14.133465 -1.241895 8.523903 0.774801 -28.982490 
118.864293 0.000000 -280.395895 0.000000 -64.946054 0.000000 1.540017 89.863007 0.512135 96.698224 2.573471 -174.580131 162.516647 -4.684904 -175.107595 -77.825826 3.317761 -5.116580 71.879429 2.409921 -3.581194 21.454558 0.003103 0.000017 177.320426 -1.531101 -179.532178 -23.441402 3.186908 6.276045 79.429219 -4.103416 1.423795 21.454550 -0.003094 0.000001 7.247473 1.489502 -0.348341 4.475274 2.991272 -0.639540 4.156728 2.987217 -0.657611 19.213384 19.192567 25.584961 -14.322411 -21.450412 33.985806 -163.931876 -71.257192 -17.912917 -10.155414 61.332305 28.572594 -23.220422 -14.250422 1.093129 13.229595 -1.094296 5.551513 -159.032103 73.861017 22.955301 -24.459068 -46.190896 -18.929857 -36.067640 15.239043 -1.375434 7.863402 -0.389762 -29.876043 
118.986738 0.000000 -277.083385 0.000000 -64.044181 0.000000 1.437711 89.780678 0.466779 96.629570 2.943696 -176.223879 158.247943 -3.258804 -176.744928 -77.830306 2.644664 -5.810208 71.767762 2.687410 -4.379427 21.454560 0.003103 0.000018 -179.922797 -2.517705 179.443249 -21.539393 3.915926 6.450804 80.531127 -4.509390 0.264542 21.454553 -0.003090 0.000000 7.220631 1.519118 -0.039167 4.429697 3.038631 -0.020681 4.111104 3.038318 -0.039055 19.395181 18.074139 25.679268 -14.391738 -20.991743 33.931939 -161.528018 -70.549939 -20.396611 -2.953337 59.812137 38.129784 -24.426918 -14.237317 1.110187 10.051206 2.054799 11.959516 -159.215821 74.648326 22.754401 -29.123558 -45.188443 -14.917473 -39.361178 16.018020 -1.507519 7.261576 -0.472447 -31.471746 
119.167016 0.000000 -273.758119 0.000000 -63.194787 0.000000 1.322726 89.619957 0.429344 96.269455 3.079642 -177.972310 154.480629 -1.899897 -178.473485 -75.248857 1.581723 -5.690637 72.083009 2.606538 -4.543057 21.454558 0.003104 0.000013 -177.360355 -3.370891 177.823524 -19.519327 4.358454 6.891901 81.517024 -5.014537 -0.636802 21.454553 -0.003090 0.000000 7.126957 1.457749 0.296485 4.250590 2.903794 0.645994 3.932077 2.907501 0.628437 19.660997 17.280076 25.770597 -14.659789 -20.849666 34.018775 -159.314873 -69.979154 -22.686193 3.204131 57.777499 47.794153 -26.019874 -14.251734 1.136438 7.833597 3.001691 13.957434 -159.514533 75.262981 22.438995 -33.196041 -44.163156 -11.930594 -42.958417 16.579941 -1.641646 6.533008 -0.097382 -31.757432 
119.404703 0.000000 -270.421326 0.000000 -62.415047 0.000000 1.207334 89.326057 0.422724 95.618745 3.173625 -179.824732 151.281354 -0.660802 179.881474 -70.030947 0.288680 -5.990660 71.506227 2.911315 -4.390155 21.454563 0.003115 0.000015 -175.169395 -4.196597 176.377682 -17.796124 4.456327 7.132317 82.621083 -5.323114 -1.384279 21.454550 -0.003098 -0.000003 6.971388 1.373849 0.687372 3.947927 2.723797 1.421078 3.629541 2.732193 1.404586 19.781609 16.539781 25.946700 -14.835244 -20.576351 34.144037 -156.904403 -69.580940 -25.179696 8.454197 56.026645 55.216906 -27.375839 -14.174467 1.154523 6.571070 3.011275 14.567175 -159.307387 75.963950 22.639891 -36.480590 -43.922785 -8.798850 -46.769293 16.897005 -1.774761 5.649148 0.830904 -31.575746 
119.687805 0.000000 -267.081515 0.000000 -61.706449 0.000000 1.117996 89.012077 0.388773 94.867947 3.054253 178.263486 149.228159 0.561605 178.401700 -62.089869 -1.032610 -5.951899 71.403843 3.087377 -3.926171 21.454553 0.003099 0.000019 -173.192697 -4.748003 175.096995 -16.434439 4.368526 7.186519 83.815676 -5.459307 -1.999680 21.454557 -0.003098 -0.000001 6.811467 1.255259 1.075508 3.634639 2.476621 2.189903 3.316451 2.489667 2.174909 19.530928 15.909987 26.182562 -14.706782 -20.380572 34.321120 -153.788020 -69.126821 -28.405403 12.763386 54.988364 59.589726 -27.862602 -14.081098 1.157137 6.574485 3.040339 13.719748 -159.827533 76.551708 22.099610 -39.241353 -43.907017 -6.004923 -50.356044 17.109458 -1.902497 5.001459 1.137337 -29.838293 
120.007722 0.000000 -263.744659 0.000000 -61.063089 0.000000 1.008092 88.729897 0.329298 94.216943 2.723934 176.315822 148.884559 1.774001 176.404443 -51.095952 -1.766022 -4.579653 70.954662 2.310708 -3.316834 21.454548 0.003099 0.000015 -171.246476 -4.984410 174.099077 -15.298901 4.162078 7.009067 84.702023 -5.415179 -2.507300 21.454551 -0.003089 0.000002 6.703315 1.080854 1.465324 3.421802 2.118585 2.962002 3.103914 2.136292 2.949154 18.850431 15.326963 26.454084 -14.326293 -20.135210 34.496181 -151.166580 -68.798324 -31.119506 16.570628 54.801787 60.420448 -27.469119 -13.749856 1.128953 6.793735 2.849814 14.136626 -161.180307 77.029924 20.712388 -41.463398 -44.002148 -3.955824 -53.880774 17.173556 -2.025507 4.257700 1.533471 -27.764055 
120.342767 0.000000 -260.404554 0.000000 -60.492733 0.000000 1.063680 88.327003 0.257115 93.816376 2.251818 174.428344 149.976447 3.600406 177.065797 -38.646976 -2.820608 -3.851427 69.296340 1.768090 -3.343307 21.454557 0.003099 0.000016 -169.062099 -4.814701 173.872096 -14.429017 4.114001 6.371227 85.864070 -5.079322 -3.196802 21.454553 -0.003085 0.000000 6.626054 0.868435 1.831439 3.266759 1.685722 3.686671 2.949220 1.707802 3.676436 18.594577 14.419311 26.862197 -14.794352 -19.666258 34.889460 -149.088413 -68.292869 -33.280213 19.776683 54.742385 60.447604 -26.497736 -13.889874 1.121250 6.739971 3.115534 14.039900 -163.984646 77.740243 17.845331 -42.752872 -44.428055 -2.764661 -57.267253 16.809242 -2.120937 4.013868 3.034042 -27.269020 
120.691093 0.000000 -257.063093 0.000000 -59.995181 0.000000 1.263110 87.801109 0.210677 93.663233 1.799396 172.830157 151.634407 5.581207 178.981187 -27.970036 -3.136712 -4.553190 68.055978 2.145957 -3.657526 21.454553 0.003110 0.000016 -166.791280 -4.565797 174.062426 -14.051244 4.205865 5.699725 86.936868 -4.736284 -4.000498 21.454553 -0.003088 0.000000 6.552272 0.646324 2.174832 3.115443 1.234915 4.366221 2.798253 1.261104 4.358713 18.704890 13.629906 27.146997 -15.283588 -19.301193 35.161944 -147.743713 -67.526419 -34.694690 21.994310 54.300362 59.394840 -25.642813 -14.043669 1.116986 6.417715 2.997084 13.871018 -166.965286 78.322271 14.805504 -43.250496 -44.909901 -2.481346 -60.203248 16.173220 -2.185997 2.581166 3.655282 -27.323545 
121.040339 0.000000 -253.714907 0.000000 -59.575966 0.000000 1.683702 87.120178 0.296715 93.972106 1.808940 171.832926 153.382553 7.015107 -178.379652 -22.429689 -3.399792 -6.875192 69.629243 4.240769 -2.625802 21.454557 0.003113 0.000021 -164.066758 -4.897996 173.915877 -14.018012 4.333988 5.487879 87.332288 -4.679880 -4.537784 21.454551 -0.003093 0.000000 6.493801 0.487972 2.432077 2.994347 0.914069 4.875893 2.677443 0.943331 4.870301 19.041186 13.382958 27.311471 -15.320234 -19.046485 35.228859 -145.389210 -67.173135 -37.140284 23.217071 53.950500 58.625850 -25.282217 -13.832398 1.097688 6.778571 2.595867 13.623744 -170.383413 78.203549 11.324501 -42.751435 -44.889356 -3.470579 -62.536147 15.352496 -2.218479 1.812267 2.403572 -28.998162 
